<svg width="177" height="177" viewBox="0 0 177 177" fill="none" xmlns="http://www.w3.org/2000/svg">
<path d="M85.04 4.04313C87.0104 1.97492 90.31 1.97492 92.2803 4.04313L110.126 22.7751C111.204 23.9067 112.749 24.4691 114.302 24.2952L140.014 21.4166C142.852 21.0988 145.38 23.2197 145.56 26.0706L147.19 51.891C147.288 53.4508 148.11 54.8749 149.412 55.74L170.958 70.0617C173.337 71.643 173.91 74.8925 172.215 77.192L156.867 98.0192C155.94 99.2774 155.654 100.897 156.095 102.396L163.395 127.217C164.201 129.957 162.551 132.815 159.775 133.487L134.629 139.576C133.11 139.944 131.851 141.001 131.225 142.433L120.862 166.139C119.718 168.756 116.617 169.884 114.058 168.615L90.8824 157.116C89.4824 156.422 87.838 156.422 86.4379 157.116L63.2619 168.615C60.703 169.884 57.6024 168.756 56.4582 166.139L46.0956 142.433C45.4696 141.001 44.21 139.944 42.6909 139.576L17.5458 133.487C14.7695 132.815 13.1197 129.957 13.9256 127.217L21.2252 102.396C21.6662 100.897 21.3807 99.2774 20.4534 98.0192L5.10491 77.192C3.41026 74.8925 3.98324 71.643 6.36217 70.0617L27.9084 55.74C29.21 54.8749 30.0322 53.4508 30.1307 51.891L31.7605 26.0706C31.9404 23.2197 34.4681 21.0988 37.3069 21.4166L63.018 24.2952C64.5712 24.4691 66.1164 23.9067 67.1945 22.7751L85.04 4.04313Z" fill="#5CBE3A"/>
<path d="M61.4709 77.708C61.4709 76.3267 61.6312 75.081 61.9519 73.971C62.2972 72.8363 62.8892 71.8003 63.7279 70.863C64.5912 69.901 65.8245 68.976 67.4279 68.088C68.5625 67.4467 69.6109 66.8793 70.5729 66.386C71.5595 65.868 72.3365 65.3377 72.9039 64.795C73.4959 64.2523 73.7919 63.611 73.7919 62.871C73.7919 62.0817 73.4465 61.3787 72.7559 60.762C72.0899 60.1207 71.1279 59.8 69.8699 59.8C68.5379 59.8 67.4155 60.1207 66.5029 60.762C65.5902 61.3787 64.8625 62.0077 64.3199 62.649L61.7669 59.726C62.1122 59.356 62.6919 58.8997 63.5059 58.357C64.3199 57.7897 65.3189 57.2963 66.5029 56.877C67.7115 56.433 69.0682 56.211 70.5729 56.211C72.9409 56.211 74.8032 56.7907 76.1599 57.95C77.5165 59.1093 78.1949 60.5647 78.1949 62.316C78.1949 63.5247 77.8865 64.5607 77.2699 65.424C76.6532 66.2627 75.9132 66.9657 75.0499 67.533C74.2112 68.1003 73.4342 68.569 72.7189 68.939C71.4362 69.5803 70.3755 70.1477 69.5369 70.641C68.7229 71.1343 68.0692 71.64 67.5759 72.158C67.0825 72.676 66.6879 73.305 66.3919 74.045H78.6019V77.708H61.4709ZM89.9915 83.221C88.1168 83.221 86.4148 82.7893 84.8855 81.926C83.3562 81.0873 82.2092 79.9403 81.4445 78.485L83.8865 76.154C84.5772 77.19 85.4652 78.0287 86.5505 78.67C87.6358 79.3113 88.7952 79.632 90.0285 79.632C91.5332 79.632 92.7788 79.151 93.7655 78.189C94.7769 77.2517 95.2825 76.0183 95.2825 74.489C95.2825 73.009 94.8015 71.8127 93.8395 70.9C92.9022 69.9873 91.7182 69.531 90.2875 69.531C89.3502 69.531 88.4745 69.7407 87.6605 70.16C86.8465 70.5793 86.1805 71.1713 85.6625 71.936H82.0735L85.0705 56.581H97.9095V60.318H88.0305L86.6985 67.496C87.1178 67.0273 87.6852 66.6573 88.4005 66.386C89.1158 66.1147 89.9298 65.979 90.8425 65.979C92.4705 65.979 93.9382 66.3367 95.2455 67.052C96.5528 67.7673 97.5765 68.7663 98.3165 70.049C99.0812 71.307 99.4635 72.7623 99.4635 74.415C99.4635 76.1663 99.0442 77.6957 98.2055 79.003C97.3668 80.335 96.2322 81.371 94.8015 82.111C93.3708 82.851 91.7675 83.221 89.9915 83.221ZM107.891 62.057C106.806 62.057 105.819 61.8103 104.931 61.317C104.043 60.8237 103.328 60.17 102.785 59.356C102.267 58.5173 102.008 57.5923 102.008 56.581C102.008 55.545 102.267 54.62 102.785 53.806C103.328 52.9673 104.043 52.3013 104.931 51.808C105.819 51.3147 106.806 51.068 107.891 51.068C109.001 51.068 110 51.3147 110.888 51.808C111.776 52.3013 112.479 52.9673 112.997 53.806C113.515 54.62 113.774 55.545 113.774 56.581C113.774 57.5923 113.515 58.5173 112.997 59.356C112.479 60.17 111.776 60.8237 110.888 61.317C110 61.8103 109.001 62.057 107.891 62.057ZM103.673 76.228L114.07 63.907L123.838 51.216L125.762 52.881L115.55 65.054L105.56 77.93L103.673 76.228ZM107.891 59.948C108.73 59.948 109.433 59.615 110 58.949C110.592 58.2583 110.888 57.469 110.888 56.581C110.888 55.6437 110.592 54.842 110 54.176C109.408 53.51 108.705 53.177 107.891 53.177C107.077 53.177 106.374 53.5223 105.782 54.213C105.19 54.879 104.894 55.6683 104.894 56.581C104.894 57.4937 105.19 58.283 105.782 58.949C106.374 59.615 107.077 59.948 107.891 59.948ZM121.507 78.078C120.422 78.078 119.435 77.8313 118.547 77.338C117.659 76.8447 116.944 76.191 116.401 75.377C115.883 74.5383 115.624 73.601 115.624 72.565C115.624 71.5537 115.883 70.641 116.401 69.827C116.944 68.9883 117.659 68.3223 118.547 67.829C119.435 67.3357 120.422 67.089 121.507 67.089C122.617 67.089 123.616 67.3357 124.504 67.829C125.392 68.3223 126.095 68.9883 126.613 69.827C127.131 70.641 127.39 71.5537 127.39 72.565C127.39 73.601 127.131 74.5383 126.613 75.377C126.095 76.191 125.392 76.8447 124.504 77.338C123.616 77.8313 122.617 78.078 121.507 78.078ZM121.507 75.969C122.346 75.969 123.049 75.636 123.616 74.97C124.208 74.304 124.504 73.5023 124.504 72.565C124.504 71.6523 124.208 70.863 123.616 70.197C123.024 69.531 122.321 69.198 121.507 69.198C120.693 69.198 119.99 69.5433 119.398 70.234C118.806 70.9 118.51 71.677 118.51 72.565C118.51 73.5023 118.806 74.304 119.398 74.97C119.99 75.636 120.693 75.969 121.507 75.969Z" fill="white"/>
<path d="M68.3917 125.275C66.5171 125.275 64.8027 124.905 63.2487 124.165C61.7194 123.425 60.3997 122.426 59.2897 121.168C58.1797 119.886 57.3164 118.455 56.6997 116.876C56.1077 115.273 55.8117 113.633 55.8117 111.955C55.8117 110.204 56.1324 108.539 56.7737 106.96C57.4151 105.357 58.3031 103.939 59.4377 102.705C60.5724 101.447 61.9044 100.461 63.4337 99.7453C64.9877 99.0053 66.6651 98.6353 68.4657 98.6353C70.3404 98.6353 72.0424 99.0177 73.5717 99.7823C75.1257 100.547 76.4454 101.571 77.5307 102.853C78.6407 104.136 79.4917 105.567 80.0837 107.145C80.7004 108.724 81.0087 110.34 81.0087 111.992C81.0087 113.744 80.6881 115.421 80.0467 117.024C79.4301 118.603 78.5544 120.021 77.4197 121.279C76.2851 122.513 74.9407 123.487 73.3867 124.202C71.8574 124.918 70.1924 125.275 68.3917 125.275ZM60.0297 111.955C60.0297 113.608 60.3751 115.174 61.0657 116.654C61.7564 118.11 62.7184 119.294 63.9517 120.206C65.2097 121.094 66.7021 121.538 68.4287 121.538C69.7361 121.538 70.9077 121.267 71.9437 120.724C72.9797 120.182 73.8554 119.454 74.5707 118.541C75.2861 117.604 75.8287 116.568 76.1987 115.433C76.5687 114.299 76.7537 113.139 76.7537 111.955C76.7537 110.303 76.4084 108.749 75.7177 107.293C75.0517 105.838 74.0897 104.666 72.8317 103.778C71.5737 102.866 70.1061 102.409 68.4287 102.409C67.0967 102.409 65.9127 102.681 64.8767 103.223C63.8407 103.766 62.9651 104.494 62.2497 105.406C61.5344 106.319 60.9794 107.343 60.5847 108.477C60.2147 109.612 60.0297 110.771 60.0297 111.955ZM85.299 125.09V98.8203H102.8V102.483H89.443V110.327H100.617V113.768H89.443V125.09H85.299ZM106.726 125.09V98.8203H124.227V102.483H110.87V110.327H122.044V113.768H110.87V125.09H106.726Z" fill="white"/>
</svg>
